<svg xmlns="http://www.w3.org/2000/svg" xmlns:xlink="http://www.w3.org/1999/xlink" width="256" zoomAndPan="magnify" viewBox="0 0 192 31.5" height="42" preserveAspectRatio="xMidYMid meet" version="1.0"><defs><g/><clipPath id="bfbbcf4ec9"><path d="M 99 9 L 115 9 L 115 27.296875 L 99 27.296875 Z M 99 9 " clip-rule="nonzero"/></clipPath></defs><g fill="#ffffff" fill-opacity="1"><g transform="translate(50.813264, 21.885617)"><g><path d="M 12.828125 -19.703125 L 12.828125 -15.765625 L 5.921875 -15.765625 L 5.921875 -11.84375 L 12.296875 -11.84375 L 12.296875 -7.90625 L 5.921875 -7.90625 L 5.921875 0 L 1.4375 0 L 1.4375 -19.703125 Z M 12.828125 -19.703125 "/></g></g></g><g fill="#ffffff" fill-opacity="1"><g transform="translate(63.163946, 21.885617)"><g><path d="M 1.4375 0 L 1.4375 -20.546875 L 5.65625 -20.546875 L 5.65625 0 Z M 1.4375 0 "/></g></g></g><g fill="#ffffff" fill-opacity="1"><g transform="translate(69.064532, 21.885617)"><g><path d="M 2.265625 -1.515625 C 1.117188 -2.765625 0.546875 -4.296875 0.546875 -6.109375 C 0.546875 -7.929688 1.117188 -9.46875 2.265625 -10.71875 C 3.410156 -11.976562 4.867188 -12.609375 6.640625 -12.609375 C 8.265625 -12.609375 9.601562 -12.097656 10.65625 -11.078125 L 10.65625 -12.25 L 14.890625 -12.25 L 14.890625 0 L 10.703125 0 L 10.703125 -1.390625 L 10.65625 -1.390625 C 9.601562 -0.222656 8.265625 0.359375 6.640625 0.359375 C 4.867188 0.359375 3.410156 -0.265625 2.265625 -1.515625 Z M 5.859375 -8.1875 C 5.316406 -7.644531 5.046875 -6.953125 5.046875 -6.109375 C 5.046875 -5.265625 5.304688 -4.578125 5.828125 -4.046875 C 6.359375 -3.515625 7.050781 -3.25 7.90625 -3.25 C 8.738281 -3.25 9.421875 -3.519531 9.953125 -4.0625 C 10.484375 -4.601562 10.75 -5.285156 10.75 -6.109375 C 10.75 -6.953125 10.472656 -7.644531 9.921875 -8.1875 C 9.378906 -8.726562 8.707031 -9 7.90625 -9 C 7.09375 -9 6.410156 -8.726562 5.859375 -8.1875 Z M 5.859375 -8.1875 "/></g></g></g><g fill="#ffffff" fill-opacity="1"><g transform="translate(84.186368, 21.885617)"><g><path d="M 4.546875 -12.25 L 7.53125 -5.59375 L 10.515625 -12.25 L 15.53125 -12.25 L 8.953125 0 L 6.09375 0 L -0.484375 -12.25 Z M 4.546875 -12.25 "/></g></g></g><g fill="#ffffff" fill-opacity="1"><g transform="translate(98.043296, 21.885617)"><g/></g></g><g fill="#ffffff" fill-opacity="1"><g transform="translate(103.370541, 21.885617)"><g/></g></g><g fill="#ffffff" fill-opacity="1"><g transform="translate(108.697785, 21.885617)"><g/></g></g><g fill="#ffffff" fill-opacity="1"><g transform="translate(114.028255, 21.885617)"><g><path d="M 1.4375 0 L 1.4375 -12.25 L 5.65625 -12.25 L 5.65625 -10.484375 L 5.703125 -10.484375 C 5.734375 -10.546875 5.785156 -10.625 5.859375 -10.71875 C 5.929688 -10.820312 6.085938 -10.992188 6.328125 -11.234375 C 6.566406 -11.472656 6.820312 -11.6875 7.09375 -11.875 C 7.363281 -12.0625 7.710938 -12.226562 8.140625 -12.375 C 8.578125 -12.53125 9.015625 -12.609375 9.453125 -12.609375 C 9.921875 -12.609375 10.375 -12.546875 10.8125 -12.421875 C 11.257812 -12.296875 11.585938 -12.171875 11.796875 -12.046875 L 12.140625 -11.84375 L 10.375 -8.265625 C 9.84375 -8.710938 9.109375 -8.9375 8.171875 -8.9375 C 7.660156 -8.9375 7.222656 -8.820312 6.859375 -8.59375 C 6.492188 -8.375 6.234375 -8.101562 6.078125 -7.78125 C 5.929688 -7.46875 5.820312 -7.195312 5.75 -6.96875 C 5.6875 -6.75 5.65625 -6.578125 5.65625 -6.453125 L 5.65625 0 Z M 1.4375 0 "/></g></g></g><g fill="#ffffff" fill-opacity="1"><g transform="translate(124.730578, 21.885617)"><g><path d="M 6.765625 -12.609375 C 7.460938 -12.609375 8.148438 -12.53125 8.828125 -12.375 C 9.515625 -12.21875 10.03125 -12.054688 10.375 -11.890625 L 10.875 -11.65625 L 9.484375 -8.890625 C 8.523438 -9.398438 7.617188 -9.65625 6.765625 -9.65625 C 6.285156 -9.65625 5.945312 -9.601562 5.75 -9.5 C 5.550781 -9.394531 5.453125 -9.195312 5.453125 -8.90625 C 5.453125 -8.84375 5.457031 -8.78125 5.46875 -8.71875 C 5.488281 -8.65625 5.519531 -8.59375 5.5625 -8.53125 C 5.613281 -8.476562 5.65625 -8.429688 5.6875 -8.390625 C 5.726562 -8.359375 5.796875 -8.316406 5.890625 -8.265625 C 5.992188 -8.210938 6.070312 -8.175781 6.125 -8.15625 C 6.1875 -8.132812 6.28125 -8.097656 6.40625 -8.046875 C 6.53125 -8.003906 6.625 -7.96875 6.6875 -7.9375 C 6.75 -7.914062 6.851562 -7.878906 7 -7.828125 C 7.15625 -7.785156 7.273438 -7.753906 7.359375 -7.734375 C 7.847656 -7.597656 8.273438 -7.441406 8.640625 -7.265625 C 9.015625 -7.085938 9.40625 -6.847656 9.8125 -6.546875 C 10.21875 -6.242188 10.53125 -5.859375 10.75 -5.390625 C 10.96875 -4.929688 11.078125 -4.410156 11.078125 -3.828125 C 11.078125 -1.035156 9.144531 0.359375 5.28125 0.359375 C 4.40625 0.359375 3.570312 0.222656 2.78125 -0.046875 C 1.988281 -0.316406 1.421875 -0.585938 1.078125 -0.859375 L 0.546875 -1.296875 L 2.265625 -4.1875 C 2.390625 -4.070312 2.554688 -3.9375 2.765625 -3.78125 C 2.972656 -3.632812 3.347656 -3.425781 3.890625 -3.15625 C 4.429688 -2.894531 4.898438 -2.765625 5.296875 -2.765625 C 6.179688 -2.765625 6.625 -3.0625 6.625 -3.65625 C 6.625 -3.925781 6.507812 -4.132812 6.28125 -4.28125 C 6.0625 -4.4375 5.679688 -4.609375 5.140625 -4.796875 C 4.609375 -4.992188 4.191406 -5.171875 3.890625 -5.328125 C 3.128906 -5.722656 2.523438 -6.171875 2.078125 -6.671875 C 1.628906 -7.179688 1.40625 -7.847656 1.40625 -8.671875 C 1.40625 -9.910156 1.882812 -10.875 2.84375 -11.5625 C 3.8125 -12.257812 5.117188 -12.609375 6.765625 -12.609375 Z M 6.765625 -12.609375 "/></g></g></g><g clip-path="url(#bfbbcf4ec9)"><path fill="#ffffff" d="M 110.707031 20.730469 C 108.523438 22.917969 104.945312 22.917969 102.761719 20.730469 C 100.578125 18.546875 100.578125 14.972656 102.761719 12.785156 C 104.945312 10.601562 108.523438 10.601562 110.707031 12.785156 C 112.890625 14.972656 112.890625 18.546875 110.707031 20.730469 Z M 111.988281 22.011719 C 114.875 19.121094 114.875 14.398438 111.988281 11.507812 C 109.097656 8.617188 104.371094 8.617188 101.484375 11.507812 C 98.59375 14.398438 98.59375 19.121094 101.484375 22.011719 L 106.738281 27.269531 Z M 111.988281 22.011719 " fill-opacity="1" fill-rule="evenodd"/></g><path fill="#ffffff" d="M 106.738281 12.0625 C 109.332031 12.0625 111.4375 14.171875 111.4375 16.761719 C 111.4375 18.207031 110.785156 19.503906 109.757812 20.367188 L 109.585938 18.496094 C 110.621094 17.972656 109.925781 16.023438 109.566406 15.1875 C 109.464844 14.960938 109.296875 14.613281 109.097656 14.449219 C 109.046875 14.40625 108.96875 14.398438 108.898438 14.414062 C 108.835938 14.441406 108.792969 14.5 108.792969 14.5625 L 108.792969 20.992188 C 108.367188 21.203125 107.90625 21.351562 107.417969 21.417969 L 107.417969 21.359375 L 107.132812 17.191406 C 107.46875 17.101562 107.730469 16.789062 107.730469 16.425781 L 107.730469 14.570312 C 107.730469 14.476562 107.652344 14.40625 107.566406 14.40625 C 107.480469 14.40625 107.402344 14.476562 107.402344 14.570312 L 107.402344 16.050781 C 107.402344 16.136719 107.332031 16.214844 107.246094 16.214844 C 107.15625 16.214844 107.078125 16.136719 107.078125 16.050781 L 107.078125 14.570312 C 107.078125 14.476562 107.007812 14.40625 106.921875 14.40625 C 106.828125 14.40625 106.757812 14.476562 106.757812 14.570312 L 106.757812 16.050781 C 106.757812 16.136719 106.6875 16.214844 106.589844 16.214844 C 106.503906 16.214844 106.433594 16.136719 106.433594 16.050781 L 106.433594 14.570312 C 106.433594 14.476562 106.355469 14.40625 106.269531 14.40625 C 106.183594 14.40625 106.113281 14.476562 106.113281 14.570312 L 106.113281 16.425781 C 106.113281 16.78125 106.355469 17.085938 106.6875 17.179688 L 106.398438 21.359375 L 106.390625 21.4375 C 106.390625 21.4375 106.390625 21.445312 106.390625 21.445312 L 106.390625 21.453125 C 105.84375 21.417969 105.320312 21.28125 104.84375 21.070312 L 104.582031 17.25 C 105.023438 17.101562 105.363281 16.519531 105.363281 15.832031 C 105.363281 15.023438 104.910156 14.371094 104.355469 14.371094 C 103.789062 14.371094 103.335938 15.023438 103.335938 15.832031 C 103.335938 16.519531 103.675781 17.101562 104.121094 17.25 L 103.902344 20.515625 C 102.761719 19.660156 102.03125 18.296875 102.03125 16.761719 C 102.03125 14.171875 104.136719 12.0625 106.738281 12.0625 Z M 106.738281 12.0625 " fill-opacity="1" fill-rule="evenodd"/></svg>